<?xml version="1.0" encoding="UTF-8"?>
<svg xmlns="http://www.w3.org/2000/svg" version="1.1" viewBox="0 0 12 12">
  <defs>
    <style>
      .cls-1 {
        fill: none;
        stroke: #000;
        stroke-miterlimit: 10;
        stroke-width: .5px;
      }
    </style>
  </defs>
  <!-- Generator: Adobe Illustrator 28.7.1, SVG Export Plug-In . SVG Version: 1.2.0 Build 142)  -->
  <g>
    <g id="Layer_1">
      <path d="M11,6.3l-1-.5s0,0,0,0l-1.9-1s0,0,0,0c0,0,0,0,0,0,0,0,0,0,0,0,0,0,0,0,0,0s0,0,0,0c0,0,0,0,0,0-.6,0-.9.2-1.2.4-.3.2-.5.3-1.1.4-.6,0-.8-.1-1.1-.3-.3-.2-.6-.3-1.2-.3-.6,0-.9.2-1.2.4-.3.2-.6.3-1.1.4,0,0,0,0,0,0,0,0,0,0,0,0,0,0,0,0,0,0,0,0,0,0,0,0,0,0,0,0,0,0,0,0,0,0,0,0,0,0,0,0,0,0,0,0,0,0,0,0,0,0,0,0,0,0,0,0,0,0,0,0,0,0,0,0,0,0,0,0,0,0,0,0,0,0,0,0,0,0,0,0,0,0,0,0,0,0,0,0,0,0,0,0,0,0,0,0,0,0,0,0,0,0,0,0,0,0,0,0,0,0,0,0,0,0,0,0,0,0,0,0,0,0,0,0,0,0,0,0,0,0,0,0,0,0,0,0,0,0,0,0,0,0,0,0,0,0,0,0,0,0,0,0,0,0,0,0,0,0,0,0,0,0,0,0,0,0,0,0,0,0,0,0,0,0,0,0,0,0,0,0l2.9,1.6s0,0,0,0c0,0,0,0,0,0,0,0,0,0,0,0,0,0,0,0,0,0,.6,0,.9-.2,1.2-.4.3-.2.5-.3,1.1-.4.6,0,.8.1,1.1.3.3.2.6.3,1.2.3,0,0,.1,0,.2,0,.5,0,.8-.2,1-.4.3-.2.6-.3,1.1-.4,0,0,0,0,0,0,0,0,0,0,0,0,0,0,0,0,0,0,0,0,0,0,0-.1h0ZM3,6.5s0,0,0,0l-.8-.4c.4,0,.6-.2.9-.4.3-.2.5-.3,1.1-.3.6,0,.8.1,1.1.3,0,0,0,0,.1,0,0,0-.1,0-.2,0-.6,0-.9.2-1.2.4-.3.2-.5.3-1.1.3h0ZM8.8,5.4l.8.4c-.4,0-.6.2-.9.4-.3.2-.5.3-1.1.4-.6,0-.8-.1-1.1-.3,0,0,0,0-.1,0,0,0,.1,0,.2,0,0,0,.1,0,.2,0,.5,0,.8-.2,1-.4.3-.2.5-.3,1.1-.3h0ZM5.9,5.6c.5,0,.8-.2,1-.4.3-.2.5-.3,1.1-.4l.6.3c-.4,0-.6.2-.9.4-.3.2-.6.3-1.1.4-.5,0-.8-.1-1.1-.3,0,0,.1,0,.2,0,0,0,.1,0,.2,0h0ZM2.3,5.3c.3-.2.6-.3,1.1-.4.5,0,.8.1,1.1.3,0,0-.1,0-.2,0-.6,0-.9.2-1.2.4-.3.2-.5.3-1.1.3l-.6-.3c.4,0,.6-.2.9-.4h0ZM5.1,6.7c-.3.2-.5.3-1.1.4l-.7-.4c.4,0,.7-.2.9-.4.3-.2.5-.3,1.1-.3.6,0,.8.1,1.1.3,0,0,0,0,0,0,0,0-.1,0-.2,0-.6,0-.9.2-1.2.4h0ZM9.7,6.7c-.3.2-.6.3-1.1.4-.6,0-.8-.1-1.1-.3,0,0,0,0,0,0,0,0,.1,0,.2,0,0,0,.1,0,.2,0,.5,0,.8-.2,1-.4.3-.2.5-.3,1.1-.3l.7.4c-.4,0-.6.2-.9.4h0Z"/>
      <circle class="cls-1" cx="6" cy="6" r="5.6"/>
    </g>
  </g>
</svg>