<?xml version="1.0" encoding="UTF-8"?>
<svg id="Layer_1" xmlns="http://www.w3.org/2000/svg" viewBox="0 0 1037.22 352.43">
  <defs>
    <style>
      .cls-1 {
        fill: #e2dad3;
      }
    </style>
  </defs>
  <path class="cls-1" d="M539.75,85.13l-54-28.73c-.43-.33-.91-.59-1.44-.77L380.79.56c-.07-.04-.14-.05-.21-.09-.16-.07-.32-.14-.48-.2-.14-.05-.28-.09-.43-.13-.16-.04-.31-.07-.47-.09-.16-.02-.32-.04-.48-.04-.08,0-.16-.02-.25-.02-32.62.49-48.74,10.71-64.34,20.57-15.15,9.58-29.5,18.64-59.36,19.09-29.93.46-44.69-8.09-60.32-17.14-16.08-9.31-32.7-18.94-65.29-18.43-32.6.51-48.9,10.64-64.68,20.44-15.34,9.53-29.85,18.54-59.75,19-.07,0-.14.02-.21.03-.17.01-.34.03-.5.06-.15.03-.3.05-.44.09-.14.04-.28.09-.42.14-.16.06-.32.12-.48.2-.11.05-.21.11-.31.18-.17.1-.33.2-.49.32-.08.06-.15.13-.23.2-.16.14-.32.29-.46.46-.06.07-.11.14-.16.21-.14.18-.27.38-.39.58-.02.03-.05.06-.07.1-.02.04-.03.09-.06.14-.1.2-.18.4-.25.61-.04.11-.07.23-.1.35-.04.17-.08.34-.1.52-.02.16-.03.32-.04.47,0,.08-.02.16-.02.25,0,.07.02.14.02.21.01.17.03.33.06.49.03.15.05.3.09.45.04.15.09.29.14.44.05.15.11.29.18.43.07.14.15.27.23.4.08.13.16.26.25.38.09.13.2.24.31.36.1.11.21.22.32.33.11.1.23.19.35.28.14.1.28.2.42.28.06.03.11.08.17.11l158.96,84.56s.1.03.15.05c.34.17.69.3,1.07.38.04,0,.07.02.11.03.32.06.66.1,1,.09,32.57-.52,48.7-10.71,64.26-20.58,15.11-9.58,29.37-18.63,59.27-19.09,29.93-.46,44.69,8.09,60.33,17.14,16.08,9.31,32.7,18.94,65.29,18.43,3.3-.05,6.44-.2,9.42-.44,26.46-2.12,41.08-11.2,55.26-20,15.34-9.53,29.83-18.54,59.76-19,.05,0,.1-.02.16-.02.1,0,.19.03.29.02,1.58-.13,3.06-1.03,3.86-2.53,1.25-2.34.36-5.25-1.98-6.49ZM109.24,98.37s-.09.01-.13.02l-41.22-21.93c22.01-3.05,35.06-11.24,47.75-19.23,15.14-9.52,29.48-18.52,59.35-18.97,29.93-.46,44.69,8.09,60.33,17.14,2.33,1.35,4.68,2.7,7.08,4.04-3.09-.16-6.3-.24-9.72-.19-32.57.51-48.66,10.56-64.2,20.29-15.09,9.45-29.35,18.37-59.25,18.83ZM424,34.42l41.79,22.23c-21.83,3.09-34.95,11.23-47.73,19.16-15.34,9.53-29.82,18.55-59.77,19-29.93.46-44.69-8.09-60.33-17.14-2.33-1.35-4.68-2.7-7.08-4.04,3.09.16,6.3.24,9.72.19,3.31-.05,6.44-.2,9.42-.44,26.47-2.12,41.08-11.2,55.26-20,15.16-9.41,29.5-18.3,58.71-18.96ZM264.27,48.82c26.49-2.12,40.95-11.26,54.98-20.13,14.94-9.45,29.1-18.36,58.16-19.04l30.79,16.38c-21.99,3.06-35.15,11.25-47.97,19.21-15.34,9.53-29.84,18.53-59.77,19-27.82.43-42.54-6.93-57.03-15.24,3.6.23,7.41.33,11.48.26,3.28-.05,6.39-.2,9.36-.44ZM69.55,32.68c15.34-9.53,29.85-18.54,59.75-19,27.82-.43,42.54,6.93,57.03,15.24-3.6-.23-7.41-.33-11.48-.26-32.6.52-48.72,10.64-64.31,20.45-14.98,9.42-29.19,18.32-58.45,18.94l-30.41-16.18c21.91-3.08,35.07-11.23,47.87-19.19ZM222.96,109c-14.9,9.45-29.03,18.38-58.08,19.05l-39.84-21.2c22.51-2.93,35.73-11.16,48.55-19.18,15.08-9.45,29.33-18.38,59.25-18.83,29.93-.46,44.69,8.09,60.32,17.14,1.53.89,3.08,1.78,4.64,2.66-3.34-.19-6.84-.28-10.57-.23-32.61.5-48.71,10.71-64.27,20.58ZM472.6,104.99c-15.34,9.53-29.83,18.54-59.76,19-29.93.46-44.69-8.09-60.33-17.14-1.53-.89-3.08-1.78-4.63-2.66,3.34.19,6.84.28,10.57.22,3.31-.05,6.44-.2,9.42-.44,26.47-2.12,41.08-11.2,55.26-20,15.1-9.38,29.43-18.23,58.39-18.95l39.03,20.77c-21.97,3.06-35.13,11.25-47.95,19.21Z"/>
  <g>
    <path class="cls-1" d="M631.58,112.33c1.18,0,2.06.88,2.06,2.06v5.59c0,1.18-.88,2.06-2.06,2.06h-52.99c-1.18,0-2.06-.88-2.06-2.06V21.07c0-1.18.88-2.06,2.06-2.06h6.77c1.18,0,2.06.88,2.06,2.06v91.27h44.16Z"/>
    <path class="cls-1" d="M659.69,21.07v98.92c0,1.18-.88,2.06-2.06,2.06h-6.77c-1.18,0-2.06-.88-2.06-2.06V21.07c0-1.18.88-2.06,2.06-2.06h6.77c1.18,0,2.06.88,2.06,2.06Z"/>
    <path class="cls-1" d="M682.8,119.99V21.07c0-1.18.88-2.06,2.06-2.06h7.8c.59,0,1.32.29,1.62.88l60.2,84.79V21.07c0-1.18.88-2.06,2.06-2.06h6.77c1.18,0,2.06.88,2.06,2.06v98.92c0,1.18-.88,2.06-2.06,2.06h-7.8c-.59,0-1.32-.29-1.62-.88l-60.21-84.79v83.61c0,1.18-.88,2.06-2.06,2.06h-6.77c-1.18,0-2.06-.88-2.06-2.06Z"/>
    <path class="cls-1" d="M849.41,122.05h-58.88c-1.18,0-2.06-.88-2.06-2.06V21.07c0-1.18.88-2.06,2.06-2.06h58.88c1.18,0,2.06.88,2.06,2.06v5.59c0,1.18-.88,2.06-2.06,2.06h-50.05v36.95h43.43c1.17,0,2.06.88,2.06,2.06v5.59c0,1.18-.88,2.06-2.06,2.06h-43.43v36.95h50.05c1.18,0,2.06.88,2.06,2.06v5.59c0,1.18-.88,2.06-2.06,2.06Z"/>
    <path class="cls-1" d="M943.47,120.72l-12.07-30.47h-46.37l-11.92,30.47c-.29.74-1.03,1.32-1.91,1.32h-6.92c-1.91,0-2.65-1.18-1.91-2.8l39.89-98.92c.44-.74,1.17-1.32,1.91-1.32h8.24c.74,0,1.47.59,1.92,1.32l39.89,98.92c.74,1.62,0,2.8-1.91,2.8h-6.92c-.88,0-1.62-.59-1.92-1.32ZM888.56,81.27h39.31l-19.58-50.19-19.73,50.19Z"/>
    <path class="cls-1" d="M968.92,119.99V21.07c0-1.18.88-2.06,2.06-2.06h33.42c17.37,0,31.5,13.54,31.5,31.35s-13.4,30.77-30.03,31.5l29.88,36.8c1.77,2.06,1.03,3.39-1.47,3.39h-7.8c-.59,0-1.32-.29-1.62-.74l-31.5-39.45h-13.54v38.13c0,1.18-.88,2.06-2.06,2.06h-6.77c-1.18,0-2.06-.88-2.06-2.06ZM979.82,28.72v43.57h24.58c11.48,0,20.61-8.69,20.61-21.93s-9.13-21.64-20.61-21.64h-24.58Z"/>
    <path class="cls-1" d="M154.7,233.71c0,25.47,18.69,43.72,41.95,43.72s40.04-16.78,41.81-40.04h-34c-1.18,0-2.06-.88-2.06-2.06v-5.15c0-1.18.88-2.06,2.06-2.06h44.01c.59,0,1.03.44,1.03,1.03v1.03c0,34-23.7,56.38-52.85,56.38s-52.84-23.26-52.84-52.85,23.7-52.84,52.84-52.84c14.87,0,28.41,6.04,38.13,15.9.73.88.73,2.06-.15,2.8l-3.83,3.97c-1.03.88-2.21.74-3.09-.15-7.95-8.39-18.84-13.4-31.06-13.4-23.26,0-41.95,18.69-41.95,43.72Z"/>
    <path class="cls-1" d="M328.09,285.23h-58.88c-1.18,0-2.06-.88-2.06-2.06v-98.92c0-1.18.88-2.06,2.06-2.06h58.88c1.18,0,2.06.88,2.06,2.06v5.59c0,1.18-.88,2.06-2.06,2.06h-50.05v36.95h43.43c1.17,0,2.06.88,2.06,2.06v5.59c0,1.18-.88,2.06-2.06,2.06h-43.43v36.95h50.05c1.18,0,2.06.88,2.06,2.06v5.59c0,1.18-.88,2.06-2.06,2.06Z"/>
    <path class="cls-1" d="M393.44,286.56c-29.14,0-52.84-23.26-52.84-52.85s23.7-52.84,52.84-52.84,52.85,23.26,52.85,52.84-23.7,52.85-52.85,52.85ZM393.44,189.99c-23.26,0-41.95,18.69-41.95,43.72s18.69,43.72,41.95,43.72,41.96-18.69,41.96-43.72-18.69-43.72-41.96-43.72Z"/>
    <path class="cls-1" d="M456.72,275.22c-1.03-.74-1.18-1.77-.44-2.8l3.39-4.71c.74-1.03,1.91-1.18,2.94-.44,7.95,5.74,16.49,9.72,25.76,9.72,12.66.15,24.14-7.07,24.14-18.84s-13.1-17.22-26.2-22.23c-13.54-5.15-27.08-11.92-27.08-28.12s12.51-26.94,29.29-26.94c11.92,0,20.61,2.94,29.74,9.42,1.03.74,1.17,1.77.44,2.8l-3.24,4.56c-.73,1.03-1.91,1.32-2.94.59-7.21-5.01-14.42-7.95-23.99-7.95-6.92,0-18.25,3.09-18.25,17.22,0,9.13,7.95,14.13,17.52,17.81,7.36,2.8,15.31,6.33,20.9,9.42,8.39,4.71,14.72,12.51,14.72,23.11,0,18.55-16.49,28.7-35.18,28.7-11.63,0-21.34-4.12-31.5-11.33Z"/>
    <path class="cls-1" d="M547.39,233.71c0,25.47,18.69,43.72,41.95,43.72,12.22,0,23.11-5.3,31.21-13.69.88-1.03,2.06-1.03,3.09-.15l3.68,4.12c.73.74.88,1.91,0,2.65-9.57,10.01-23.11,16.19-37.98,16.19-29.14,0-52.84-23.26-52.84-52.85s23.7-52.84,52.84-52.84c14.87,0,28.41,6.18,37.98,16.05.88.88.73,2.06,0,2.8l-3.68,3.83c-1.03,1.03-2.21.88-3.09,0-8.1-8.54-18.99-13.54-31.21-13.54-23.26,0-41.95,18.69-41.95,43.72Z"/>
    <path class="cls-1" d="M657.19,184.25v98.92c0,1.18-.88,2.06-2.06,2.06h-6.77c-1.18,0-2.06-.88-2.06-2.06v-98.92c0-1.18.88-2.06,2.06-2.06h6.77c1.18,0,2.06.88,2.06,2.06Z"/>
    <path class="cls-1" d="M741.24,285.23h-58.88c-1.18,0-2.06-.88-2.06-2.06v-98.92c0-1.18.88-2.06,2.06-2.06h58.88c1.18,0,2.06.88,2.06,2.06v5.59c0,1.18-.88,2.06-2.06,2.06h-50.05v36.95h43.43c1.17,0,2.06.88,2.06,2.06v5.59c0,1.18-.88,2.06-2.06,2.06h-43.43v36.95h50.05c1.18,0,2.06.88,2.06,2.06v5.59c0,1.18-.88,2.06-2.06,2.06Z"/>
    <path class="cls-1" d="M762.57,283.17v-98.92c0-1.18.88-2.06,2.06-2.06h7.8c.59,0,1.32.29,1.62.88l60.2,84.79v-83.61c0-1.18.88-2.06,2.06-2.06h6.77c1.18,0,2.06.88,2.06,2.06v98.92c0,1.18-.88,2.06-2.06,2.06h-7.8c-.59,0-1.32-.29-1.62-.88l-60.21-84.79v83.61c0,1.18-.88,2.06-2.06,2.06h-6.77c-1.18,0-2.06-.88-2.06-2.06Z"/>
    <path class="cls-1" d="M873.7,233.71c0,25.47,18.69,43.72,41.95,43.72,12.22,0,23.11-5.3,31.21-13.69.88-1.03,2.06-1.03,3.09-.15l3.68,4.12c.73.74.88,1.91,0,2.65-9.57,10.01-23.11,16.19-37.98,16.19-29.14,0-52.84-23.26-52.84-52.85s23.7-52.84,52.84-52.84c14.87,0,28.41,6.18,37.98,16.05.88.88.73,2.06,0,2.8l-3.68,3.83c-1.03,1.03-2.21.88-3.09,0-8.1-8.54-18.99-13.54-31.21-13.54-23.26,0-41.95,18.69-41.95,43.72Z"/>
    <path class="cls-1" d="M1035.16,285.23h-58.88c-1.18,0-2.06-.88-2.06-2.06v-98.92c0-1.18.88-2.06,2.06-2.06h58.88c1.18,0,2.06.88,2.06,2.06v5.59c0,1.18-.88,2.06-2.06,2.06h-50.05v36.95h43.43c1.17,0,2.06.88,2.06,2.06v5.59c0,1.18-.88,2.06-2.06,2.06h-43.43v36.95h50.05c1.18,0,2.06.88,2.06,2.06v5.59c0,1.18-.88,2.06-2.06,2.06Z"/>
  </g>
  <g>
    <path class="cls-1" d="M147.47,349.56c-.23-.16-.27-.45-.07-.69l.42-.57c.15-.2.42-.24.64-.08,1.93,1.58,4.24,2.63,6.73,2.63,3.71.04,6.96-2.39,6.96-6.04,0-4.01-3.78-5.55-7.38-7.05-3.48-1.38-6.92-3.12-6.92-7.38,0-4.54,3.14-7.05,7.34-7.05,2.84,0,4.88.81,7.19,2.31.27.16.3.45.15.69l-.38.61c-.15.24-.42.28-.64.12-1.97-1.38-3.82-2.15-6.36-2.15-1.97,0-5.6,1.01-5.6,5.39,0,3.36,2.61,4.62,5.3,5.67,3.86,1.58,8.97,3.61,8.97,8.75,0,4.74-3.97,7.7-8.7,7.7-2.8,0-5.15-.97-7.64-2.88Z"/>
    <path class="cls-1" d="M173.92,351.58v-26.26h-7.11c-.26,0-.45-.2-.45-.49v-.65c0-.28.19-.49.45-.49h15.89c.27,0,.46.2.46.49v.65c0,.28-.19.49-.46.49h-7.11v26.26c0,.28-.19.49-.46.49h-.76c-.26,0-.45-.2-.45-.49Z"/>
    <path class="cls-1" d="M202.03,351.87l-8.1-10.86h-5.15v10.58c0,.28-.19.49-.45.49h-.76c-.27,0-.46-.2-.46-.49v-27.39c0-.28.19-.49.46-.49h8.36c4.47,0,8.06,3.65,8.06,8.67s-3.67,8.63-8.13,8.63l7.72,10.25c.38.49.23.81-.34.81h-.83c-.15,0-.27-.08-.38-.2ZM202.33,332.37c0-4.34-3.02-7.05-6.39-7.05h-7.15v14.06h7.15c3.59,0,6.39-2.96,6.39-7.01Z"/>
    <path class="cls-1" d="M225.3,324.19c0-.28.19-.49.45-.49h.76c.26,0,.45.2.45.49v17.95c0,6.08-4.16,10.29-9.61,10.29s-9.61-4.21-9.61-10.29v-17.95c0-.28.19-.49.46-.49h.76c.27,0,.45.2.45.49v17.87c0,5.23,3.44,8.75,7.95,8.75,5,0,7.95-4.05,7.95-8.75v-17.87Z"/>
    <path class="cls-1" d="M231.31,337.89c0-8.15,6.09-14.55,13.59-14.55,3.82,0,7.3,1.7,9.76,4.46.19.2.19.45,0,.65l-.42.45c-.19.2-.46.2-.68-.04-2.08-2.39-5.07-3.93-8.66-3.93-7.19,0-11.92,6.24-11.92,12.97s4.73,12.97,11.92,12.97c3.59,0,6.58-1.54,8.66-3.93.22-.24.49-.24.68-.04l.42.45c.19.2.19.45,0,.65-2.46,2.76-5.94,4.46-9.76,4.46-7.49,0-13.59-6.4-13.59-14.55Z"/>
    <path class="cls-1" d="M265.06,351.58v-26.26h-7.11c-.26,0-.45-.2-.45-.49v-.65c0-.28.19-.49.45-.49h15.89c.27,0,.46.2.46.49v.65c0,.28-.19.49-.46.49h-7.11v26.26c0,.28-.19.49-.46.49h-.76c-.26,0-.45-.2-.45-.49Z"/>
    <path class="cls-1" d="M295.1,324.19c0-.28.19-.49.45-.49h.76c.26,0,.45.2.45.49v17.95c0,6.08-4.16,10.29-9.61,10.29s-9.61-4.21-9.61-10.29v-17.95c0-.28.19-.49.46-.49h.76c.27,0,.45.2.45.49v17.87c0,5.23,3.44,8.75,7.95,8.75,5,0,7.95-4.05,7.95-8.75v-17.87Z"/>
    <path class="cls-1" d="M317.04,351.87l-8.1-10.86h-5.15v10.58c0,.28-.19.49-.45.49h-.76c-.27,0-.46-.2-.46-.49v-27.39c0-.28.19-.49.46-.49h8.36c4.47,0,8.06,3.65,8.06,8.67s-3.67,8.63-8.13,8.63l7.72,10.25c.38.49.23.81-.34.81h-.83c-.15,0-.27-.08-.38-.2ZM317.35,332.37c0-4.34-3.02-7.05-6.39-7.05h-7.15v14.06h7.15c3.59,0,6.39-2.96,6.39-7.01Z"/>
    <path class="cls-1" d="M334.11,323.99l10.6,27.39c.15.4,0,.69-.42.69h-.83c-.19,0-.34-.12-.42-.28l-3.37-8.91h-13.02l-3.37,8.91c-.08.16-.23.28-.42.28h-.83c-.42,0-.57-.28-.42-.69l10.59-27.39c.08-.16.23-.28.42-.28h1.06c.19,0,.34.12.42.28ZM327.26,341.29h11.81l-5.9-15.52-5.9,15.52Z"/>
    <path class="cls-1" d="M362.78,350.45c.27,0,.46.2.46.49v.65c0,.28-.19.49-.46.49h-13.39c-.27,0-.46-.2-.46-.49v-27.39c0-.28.19-.49.46-.49h.76c.27,0,.45.2.45.49v26.26h12.18Z"/>
    <path class="cls-1" d="M375.19,345.59c0-4.05,2.99-6.69,6.06-9.12l-1.63-1.74c-2.16-2.35-2.57-4.09-2.57-5.67,0-3.32,2.57-5.72,5.67-5.72s5.52,2.35,5.52,5.75c0,3-2.12,5.35-4.77,7.54l7.46,8.02,4.2-5.07c.19-.2.45-.24.64-.04l.42.41c.19.2.23.49.04.69l-4.31,5.07,5.22,5.59c.42.45.3.77-.3.77h-.83c-.11,0-.22-.04-.34-.16l-4.69-5.02c-2.65,3.12-5.49,5.55-9.12,5.55-3.18,0-6.66-2.39-6.66-6.85ZM381.89,350.93c3.4,0,5.9-2.76,8.02-5.15l-7.64-8.19c-2.72,2.15-5.37,4.34-5.45,8.02,0,3.69,3.03,5.31,5.07,5.31ZM382.72,324.8c-2.12,0-4.16,1.58-4.16,4.26,0,.93.3,2.71,2.19,4.66l1.7,1.82c2.38-1.87,4.28-3.73,4.28-6.44,0-2.43-1.7-4.29-4.01-4.29Z"/>
    <path class="cls-1" d="M412.08,323.7h15.02c.27,0,.45.2.45.49v.65c0,.28-.19.49-.45.49h-13.81v11.75h12.11c.27,0,.46.2.46.49v.65c0,.28-.19.49-.46.49h-12.11v11.75h13.81c.27,0,.45.2.45.49v.65c0,.28-.19.49-.45.49h-15.02c-.27,0-.46-.2-.46-.49v-27.39c0-.28.19-.49.46-.49Z"/>
    <path class="cls-1" d="M430.77,337.89c0-8.15,6.09-14.55,13.59-14.55,3.82,0,7.3,1.7,9.76,4.46.19.2.19.45,0,.65l-.42.45c-.19.2-.46.2-.68-.04-2.08-2.39-5.07-3.93-8.66-3.93-7.19,0-11.92,6.24-11.92,12.97s4.73,12.97,11.92,12.97c3.59,0,6.58-1.54,8.66-3.93.22-.24.49-.24.68-.04l.42.45c.19.2.19.45,0,.65-2.46,2.76-5.94,4.46-9.76,4.46-7.49,0-13.59-6.4-13.59-14.55Z"/>
    <path class="cls-1" d="M484.35,337.89c0,8.14-6.09,14.55-13.58,14.55s-13.59-6.4-13.59-14.55,6.09-14.55,13.59-14.55,13.58,6.4,13.58,14.55ZM482.68,337.89c0-6.73-4.73-12.97-11.92-12.97s-11.92,6.24-11.92,12.97,4.73,12.97,11.92,12.97,11.92-6.24,11.92-12.97Z"/>
    <path class="cls-1" d="M490.82,323.9l17.48,25.41v-25.12c0-.28.19-.49.45-.49h.76c.26,0,.45.2.45.49v27.39c0,.28-.19.49-.45.49h-.98c-.15,0-.27-.08-.38-.2l-17.48-25.41v25.12c0,.28-.19.49-.45.49h-.76c-.27,0-.46-.2-.46-.49v-27.39c0-.28.19-.49.46-.49h.98c.15,0,.26.08.38.2Z"/>
    <path class="cls-1" d="M541.78,337.89c0,8.14-6.09,14.55-13.58,14.55s-13.59-6.4-13.59-14.55,6.09-14.55,13.59-14.55,13.58,6.4,13.58,14.55ZM540.12,337.89c0-6.73-4.73-12.97-11.92-12.97s-11.92,6.24-11.92,12.97,4.73,12.97,11.92,12.97,11.92-6.24,11.92-12.97Z"/>
    <path class="cls-1" d="M569.78,323.7h.91c.26,0,.45.2.45.49v27.39c0,.28-.19.49-.45.49h-.76c-.26,0-.45-.2-.45-.49v-23.95l-9.84,21.84c-.08.16-.23.28-.42.28h-.87c-.19,0-.34-.12-.42-.28l-9.84-21.84v23.95c0,.28-.19.49-.45.49h-.76c-.27,0-.46-.2-.46-.49v-27.39c0-.28.19-.49.46-.49h.91c.19,0,.34.12.42.28l10.56,23.59,10.6-23.59c.07-.16.22-.28.42-.28Z"/>
    <path class="cls-1" d="M578.89,324.19v27.39c0,.28-.19.49-.45.49h-.76c-.27,0-.46-.2-.46-.49v-27.39c0-.28.19-.49.46-.49h.76c.27,0,.45.2.45.49Z"/>
    <path class="cls-1" d="M583.55,337.89c0-8.15,6.09-14.55,13.59-14.55,3.82,0,7.3,1.7,9.76,4.46.19.2.19.45,0,.65l-.42.45c-.19.2-.46.2-.68-.04-2.08-2.39-5.07-3.93-8.66-3.93-7.19,0-11.92,6.24-11.92,12.97s4.73,12.97,11.92,12.97c3.59,0,6.58-1.54,8.66-3.93.22-.24.49-.24.68-.04l.42.45c.19.2.19.45,0,.65-2.46,2.76-5.94,4.46-9.76,4.46-7.49,0-13.59-6.4-13.59-14.55Z"/>
    <path class="cls-1" d="M621.57,337.89c0,6.73,4.73,12.97,11.92,12.97s11.73-5.79,11.96-12.48h-9.87c-.27,0-.46-.2-.46-.49v-.53c0-.28.19-.49.46-.49h11.01c.27,0,.46.2.46.49.04.16.04.36.04.53,0,8.14-6.09,14.55-13.58,14.55s-13.59-6.4-13.59-14.55,6.09-14.55,13.59-14.55c3.82,0,7.3,1.7,9.76,4.46.19.2.19.45,0,.65l-.42.45c-.19.2-.46.2-.68-.04-2.08-2.39-5.07-3.93-8.66-3.93-7.19,0-11.92,6.24-11.92,12.97Z"/>
    <path class="cls-1" d="M652.18,323.7h15.02c.27,0,.45.2.45.49v.65c0,.28-.19.49-.45.49h-13.81v11.75h12.11c.27,0,.46.2.46.49v.65c0,.28-.19.49-.46.49h-12.11v11.75h13.81c.27,0,.45.2.45.49v.65c0,.28-.19.49-.45.49h-15.02c-.27,0-.46-.2-.46-.49v-27.39c0-.28.19-.49.46-.49Z"/>
    <path class="cls-1" d="M697.58,337.89c0,8.14-6.09,14.55-13.58,14.55s-13.59-6.4-13.59-14.55,6.09-14.55,13.59-14.55,13.58,6.4,13.58,14.55ZM695.92,337.89c0-6.73-4.73-12.97-11.92-12.97s-11.92,6.24-11.92,12.97,4.73,12.97,11.92,12.97,11.92-6.24,11.92-12.97Z"/>
    <path class="cls-1" d="M716.08,350.45c.27,0,.46.2.46.49v.65c0,.28-.19.49-.46.49h-13.39c-.27,0-.46-.2-.46-.49v-27.39c0-.28.19-.49.46-.49h.76c.27,0,.45.2.45.49v26.26h12.18Z"/>
    <path class="cls-1" d="M744.99,337.89c0,8.14-6.09,14.55-13.58,14.55s-13.59-6.4-13.59-14.55,6.09-14.55,13.59-14.55,13.58,6.4,13.58,14.55ZM743.33,337.89c0-6.73-4.73-12.97-11.92-12.97s-11.92,6.24-11.92,12.97,4.73,12.97,11.92,12.97,11.92-6.24,11.92-12.97Z"/>
    <path class="cls-1" d="M750.29,337.89c0,6.73,4.73,12.97,11.92,12.97s11.73-5.79,11.96-12.48h-9.87c-.27,0-.46-.2-.46-.49v-.53c0-.28.19-.49.46-.49h11.01c.27,0,.46.2.46.49.04.16.04.36.04.53,0,8.14-6.09,14.55-13.58,14.55s-13.59-6.4-13.59-14.55,6.09-14.55,13.59-14.55c3.82,0,7.3,1.7,9.76,4.46.19.2.19.45,0,.65l-.42.45c-.19.2-.46.2-.68-.04-2.08-2.39-5.07-3.93-8.66-3.93-7.19,0-11.92,6.24-11.92,12.97Z"/>
    <path class="cls-1" d="M797.2,324.43l-9.57,16.29v10.86c0,.28-.19.49-.45.49h-.76c-.26,0-.45-.2-.45-.49v-10.86l-9.57-16.29c-.26-.45-.11-.73.38-.73h.83c.15,0,.3.08.42.24l8.78,15.12,8.78-15.12c.11-.16.27-.24.42-.24h.83c.49,0,.64.28.38.73Z"/>
    <path class="cls-1" d="M809.27,337.89c0-8.15,6.09-14.55,13.59-14.55,3.82,0,7.3,1.7,9.76,4.46.19.2.19.45,0,.65l-.42.45c-.19.2-.46.2-.68-.04-2.08-2.39-5.07-3.93-8.66-3.93-7.19,0-11.92,6.24-11.92,12.97s4.73,12.97,11.92,12.97c3.59,0,6.58-1.54,8.66-3.93.22-.24.49-.24.68-.04l.42.45c.19.2.19.45,0,.65-2.46,2.76-5.94,4.46-9.76,4.46-7.49,0-13.59-6.4-13.59-14.55Z"/>
    <path class="cls-1" d="M862.85,337.89c0,8.14-6.09,14.55-13.58,14.55s-13.59-6.4-13.59-14.55,6.09-14.55,13.59-14.55,13.58,6.4,13.58,14.55ZM861.18,337.89c0-6.73-4.73-12.97-11.92-12.97s-11.92,6.24-11.92,12.97,4.73,12.97,11.92,12.97,11.92-6.24,11.92-12.97Z"/>
    <path class="cls-1" d="M869.31,323.9l17.48,25.41v-25.12c0-.28.19-.49.45-.49h.76c.26,0,.45.2.45.49v27.39c0,.28-.19.49-.45.49h-.98c-.15,0-.27-.08-.38-.2l-17.48-25.41v25.12c0,.28-.19.49-.45.49h-.76c-.27,0-.46-.2-.46-.49v-27.39c0-.28.19-.49.46-.49h.98c.15,0,.26.08.38.2Z"/>
    <path class="cls-1" d="M893.3,349.56c-.23-.16-.27-.45-.07-.69l.42-.57c.15-.2.42-.24.64-.08,1.93,1.58,4.24,2.63,6.73,2.63,3.71.04,6.96-2.39,6.96-6.04,0-4.01-3.78-5.55-7.38-7.05-3.48-1.38-6.92-3.12-6.92-7.38,0-4.54,3.14-7.05,7.34-7.05,2.84,0,4.88.81,7.19,2.31.27.16.3.45.15.69l-.38.61c-.15.24-.42.28-.64.12-1.97-1.38-3.82-2.15-6.36-2.15-1.97,0-5.6,1.01-5.6,5.39,0,3.36,2.61,4.62,5.3,5.67,3.86,1.58,8.97,3.61,8.97,8.75,0,4.74-3.97,7.7-8.7,7.7-2.8,0-5.15-.97-7.64-2.88Z"/>
    <path class="cls-1" d="M931.14,324.19c0-.28.19-.49.45-.49h.76c.26,0,.45.2.45.49v17.95c0,6.08-4.16,10.29-9.61,10.29s-9.61-4.21-9.61-10.29v-17.95c0-.28.19-.49.46-.49h.76c.27,0,.45.2.45.49v17.87c0,5.23,3.44,8.75,7.95,8.75,5,0,7.95-4.05,7.95-8.75v-17.87Z"/>
    <path class="cls-1" d="M952.44,350.45c.27,0,.46.2.46.49v.65c0,.28-.19.49-.46.49h-13.39c-.27,0-.46-.2-.46-.49v-27.39c0-.28.19-.49.46-.49h.76c.27,0,.45.2.45.49v26.26h12.18Z"/>
    <path class="cls-1" d="M959.51,351.58v-26.26h-7.11c-.26,0-.45-.2-.45-.49v-.65c0-.28.19-.49.45-.49h15.89c.27,0,.46.2.46.49v.65c0,.28-.19.49-.46.49h-7.11v26.26c0,.28-.19.49-.46.49h-.76c-.26,0-.45-.2-.45-.49Z"/>
    <path class="cls-1" d="M974.38,324.19v27.39c0,.28-.19.49-.45.49h-.76c-.27,0-.46-.2-.46-.49v-27.39c0-.28.19-.49.46-.49h.76c.27,0,.45.2.45.49Z"/>
    <path class="cls-1" d="M982.29,323.9l17.48,25.41v-25.12c0-.28.19-.49.46-.49h.76c.26,0,.45.2.45.49v27.39c0,.28-.19.49-.45.49h-.98c-.15,0-.27-.08-.38-.2l-17.48-25.41v25.12c0,.28-.19.49-.45.49h-.76c-.27,0-.46-.2-.46-.49v-27.39c0-.28.19-.49.46-.49h.98c.15,0,.26.08.38.2Z"/>
    <path class="cls-1" d="M1007.75,337.89c0,6.73,4.73,12.97,11.92,12.97s11.73-5.79,11.96-12.48h-9.87c-.27,0-.46-.2-.46-.49v-.53c0-.28.19-.49.46-.49h11.01c.27,0,.46.2.46.49.04.16.04.36.04.53,0,8.14-6.09,14.55-13.58,14.55s-13.59-6.4-13.59-14.55,6.09-14.55,13.59-14.55c3.82,0,7.3,1.7,9.76,4.46.19.2.19.45,0,.65l-.42.45c-.19.2-.46.2-.68-.04-2.08-2.39-5.07-3.93-8.66-3.93-7.19,0-11.92,6.24-11.92,12.97Z"/>
  </g>
</svg>